<svg xmlns="http://www.w3.org/2000/svg" viewBox="0 0 120 120" width="512" height="512" role="img" aria-label="InkWarden app icon — ink drop on warden shield">
  <defs><clipPath id="squircle"><rect x="0" y="0" width="120" height="120" rx="27"/></clipPath></defs>
  <g clip-path="url(#squircle)">
    <rect x="0" y="0" width="120" height="120" fill="#FC4A6B"/>
    <rect x="0" y="96" width="120" height="24" fill="#1B5E20"/>
    <rect x="0" y="90" width="120" height="6" fill="#FFFFFF"/>
    <!-- shield -->
    <path d="M60 18 L92 30 V56 C92 78, 60 90, 60 90 C60 90, 28 78, 28 56 V30 Z" fill="#FFFFFF"/>
    <path d="M60 26 L84 36 V56 C84 74, 60 84, 60 84 C60 84, 36 74, 36 56 V36 Z" fill="#1B5E20"/>
    <!-- ink drop -->
    <path d="M60 40 C60 40, 48 56, 48 64 C48 72, 54 78, 60 78 C66 78, 72 72, 72 64 C72 56, 60 40, 60 40 Z" fill="#241F1A"/>
    <ellipse cx="56" cy="60" rx="3" ry="4.5" fill="#6E675C"/>
    <!-- lantern glint -->
    <circle cx="60" cy="32" r="5" fill="#F2C94C"/>
    <rect x="57.5" y="28" width="5" height="4" rx="1" fill="#EE7B4D"/>
  </g>
</svg>
