<svg xmlns="http://www.w3.org/2000/svg" viewBox="0 0 120 120" width="512" height="512" role="img" aria-label="Trellis app icon — lattice trellis with climbing vine">
  <defs><clipPath id="squircle"><rect x="0" y="0" width="120" height="120" rx="27"/></clipPath></defs>
  <g clip-path="url(#squircle)">
    <rect x="0" y="0" width="120" height="120" fill="#A7D98C"/>
    <rect x="0" y="96" width="120" height="24" fill="#1B5E20"/>
    <rect x="0" y="90" width="120" height="6" fill="#FFFFFF"/>
    <!-- filled lattice bars (trellis) -->
    <g fill="#1B5E20">
      <rect x="22" y="28" width="6" height="62" rx="2" transform="rotate(28 25 59)"/>
      <rect x="46" y="22" width="6" height="68" rx="2" transform="rotate(28 49 56)"/>
      <rect x="70" y="22" width="6" height="68" rx="2" transform="rotate(28 73 56)"/>
      <rect x="94" y="28" width="6" height="62" rx="2" transform="rotate(28 97 59)"/>
      <rect x="22" y="28" width="6" height="62" rx="2" transform="rotate(-28 25 59)"/>
      <rect x="46" y="22" width="6" height="68" rx="2" transform="rotate(-28 49 56)"/>
      <rect x="70" y="22" width="6" height="68" rx="2" transform="rotate(-28 73 56)"/>
      <rect x="94" y="28" width="6" height="62" rx="2" transform="rotate(-28 97 59)"/>
    </g>
    <!-- climbing vine + fruit -->
    <path d="M30 88 C36 68, 44 58, 54 44 C60 34, 68 28, 78 22" fill="none" stroke="#7CB342" stroke-width="5" stroke-linecap="round"/>
    <circle cx="82" cy="24" r="11" fill="#FC4A6B"/>
    <circle cx="82" cy="24" r="7" fill="#E63956"/>
    <ellipse cx="79" cy="21" rx="1.2" ry="1.8" fill="#241F1A"/>
    <ellipse cx="85" cy="26" rx="1.2" ry="1.8" fill="#241F1A"/>
  </g>
</svg>
