<svg xmlns="http://www.w3.org/2000/svg" viewBox="0 0 120 120" width="512" height="512" role="img" aria-label="VineWatch app icon — vine leaf with watching eye">
  <defs><clipPath id="squircle"><rect x="0" y="0" width="120" height="120" rx="27"/></clipPath></defs>
  <g clip-path="url(#squircle)">
    <rect x="0" y="0" width="120" height="120" fill="#FC4A6B"/>
    <rect x="0" y="96" width="120" height="24" fill="#1B5E20"/>
    <rect x="0" y="90" width="120" height="6" fill="#FFFFFF"/>
    <!-- leaf -->
    <path d="M60 22 C38 28, 24 48, 28 68 C32 84, 48 92, 60 86 C72 92, 88 84, 92 68 C96 48, 82 28, 60 22 Z" fill="#1B5E20"/>
    <path d="M60 28 C44 34, 34 48, 36 64 C38 76, 48 82, 60 78 C72 82, 82 76, 84 64 C86 48, 76 34, 60 28 Z" fill="#7CB342"/>
    <!-- eye -->
    <ellipse cx="60" cy="58" rx="22" ry="14" fill="#FFFFFF"/>
    <circle cx="60" cy="58" r="9" fill="#1B5E20"/>
    <circle cx="60" cy="58" r="4.5" fill="#241F1A"/>
    <circle cx="57" cy="55" r="1.8" fill="#FFFFFF"/>
    <!-- pulse accent -->
    <path d="M38 78 L48 78 L52 70 L58 84 L64 74 L70 78 L82 78" fill="none" stroke="#F2C94C" stroke-width="3.5" stroke-linecap="round" stroke-linejoin="round"/>
  </g>
</svg>
